***********************************************************************************
                        Black Hawk Down =Extended Cut {2006}= [2001]
Synopsis: 
123 elite U.S. soldiers drop into Somalia to capture two top lieutenants of a renegade warlord and find themselves in a desperate battle with a large force of heavily-armed Somalis.

Director:
Ridley Scott
Stars:
Josh Hartnett, Ewan McGregor and Tom Sizemore  
***********************************************************************************
Format                                   : Matroska
Format version                           : Version 2
File size                                : 1.81 GiB
Duration                                 : 2h 31mn
Overall bit rate                         : 1 705 Kbps

Video
Format                                   : AVC
Format/Info                              : Advanced Video Codec
Format profile                           : High@L3.0
Duration                                 : 2h 31mn
Bit rate                                 : 1 224 Kbps
Width                                    : 720 pixels
Height                                   : 352 pixels
Display aspect ratio                     : 2.40:1
Original display aspect ratio            : 2.40:1
Frame rate mode                          : Variable
Frame rate                               : 23.976 fps
Stream size                              : 1.30 GiB (72%)
Writing library                          : x264 core 120
Language                                 : English
Default                                  : Yes
Forced                                   : No

Audio
Format                                   : AC-3
Format/Info                              : Audio Coding 3
Duration                                 : 2h 31mn
Bit rate mode                            : Constant
Bit rate                                 : 448 Kbps
Channel(s)                               : 6 channels
Sampling rate                            : 48.0 KHz
Bit depth                                : 16 bits
Stream size                              : 487 MiB (26%)
Language                                 : English
Default                                  : Yes
Forced                                   : No
***********************************************************************************
NOTE FOR MY MOVIE TORRENTS: Each movie has been hashed with an MD5 checker and I am listing the hash below.
***********************************************************************************
Movie MD5: 61C3E5C08E212FB2DE085B8044A284E7 (Movie)
           49744A0377F3CC17EDB8D7AF7B013FC0 (Documentary MD5) 
----------------------------------------------------------------------------
MD5 Checker for Linux:  http://sinf.gr/en/hashcalc.html
MD5 Checker for Windows:  http://getmd5checker.com/ 
-----------------------------------------------------------------------------------
 This was personally encoded by me, Carjacker,from the {2006} Extended Edition DVD. As such, the rip includes 
the PBS Documentary program: Frontline- 'Ambush In Mogadishu',with combat footage and interviews from the real soldiers invovled.
Enjoy!
As an 'Extended Cut' version, it includes 8 mins of 'never-before-seen' footage -up to 2006,that is,until this DVD came out.
Leave your thoughts/opinions and ratings on the A/V of this film for others to see. Thanks! 
Pease seed as you DL so others may also enjoy the movie! 